<?xml version="1.0" encoding="utf-8"?>
<!-- Generator: Adobe Illustrator 16.0.0, SVG Export Plug-In . SVG Version: 6.00 Build 0)  -->
<!DOCTYPE svg PUBLIC "-//W3C//DTD SVG 1.1//EN" "http://www.w3.org/Graphics/SVG/1.1/DTD/svg11.dtd">
<svg version="1.1" id="레이어_1" xmlns="http://www.w3.org/2000/svg" xmlns:xlink="http://www.w3.org/1999/xlink" x="0px"
	 y="0px" width="411px" height="233.608px" viewBox="0 0 411 233.608" enable-background="new 0 0 411 233.608"
	 xml:space="preserve">
<g>
	<path fill="#FFFFFF" d="M30.441,84.098v-1.854h2.225c1.937,0,3.43-0.309,4.481-0.927s1.824-1.442,2.318-2.473
		c0.289-0.7,0.433-2.802,0.433-6.305V28.16c0-3.461-0.175-5.615-0.525-6.459c-0.35-0.845-1.082-1.597-2.194-2.256
		c-1.113-0.659-2.617-0.989-4.512-0.989h-2.225v-1.854h30.163c8.076,0,14.566,1.113,19.47,3.338
		c6.016,2.678,10.57,6.737,13.66,12.176c3.09,5.439,4.636,11.579,4.636,18.419c0,4.78-0.762,9.168-2.287,13.166
		c-1.524,3.997-3.492,7.293-5.903,9.889c-2.411,2.596-5.202,4.677-8.375,6.243c-3.173,1.565-7.046,2.781-11.62,3.646
		c-2.02,0.412-5.213,0.618-9.581,0.618H30.441z M56.154,20.434v52.662c0,2.802,0.134,4.512,0.402,5.13
		c0.268,0.618,0.711,1.092,1.329,1.422c0.906,0.494,2.205,0.742,3.894,0.742c5.521,0,9.745-1.875,12.671-5.625
		c3.997-5.11,5.996-13.042,5.996-23.797c0-8.653-1.36-15.576-4.08-20.768c-2.184-4.038-4.965-6.778-8.344-8.221
		C65.631,20.949,61.676,20.434,56.154,20.434z"/>
	<path fill="#FFFFFF" d="M130.449,20.496v27.505h1.36c4.286,0,7.386-1.35,9.302-4.049c1.916-2.699,3.142-6.665,3.678-11.898h1.916
		v35.355h-1.916c-0.412-3.874-1.257-7.036-2.534-9.488s-2.761-4.1-4.45-4.945s-4.142-1.267-7.355-1.267v18.976
		c0,3.75,0.154,6.037,0.463,6.861s0.896,1.504,1.762,2.04s2.267,0.804,4.203,0.804h4.018c6.305,0,11.363-1.463,15.174-4.389
		c3.812-2.925,6.542-7.376,8.19-13.351h1.854l-3.09,21.448h-58.287v-1.854h2.225c1.978,0,3.564-0.35,4.759-1.051
		c0.866-0.453,1.525-1.236,1.978-2.349c0.371-0.824,0.556-2.926,0.556-6.305V28.16c0-3.049-0.082-4.924-0.247-5.625
		c-0.33-1.154-0.948-2.04-1.854-2.658c-1.278-0.948-3.008-1.421-5.192-1.421h-2.225v-1.854h56.494v19.964h-1.916
		c-0.948-4.862-2.297-8.354-4.049-10.477c-1.751-2.122-4.213-3.678-7.386-4.667c-1.854-0.618-5.336-0.927-10.446-0.927H130.449z"/>
	<path fill="#FFFFFF" d="M235.031,60.425l-2.534,23.673h-59.894v-1.854h2.225c1.937,0,3.502-0.35,4.697-1.051
		c0.866-0.453,1.525-1.236,1.978-2.349c0.371-0.824,0.556-2.926,0.556-6.305V28.16c0-3.461-0.175-5.615-0.525-6.459
		c-0.35-0.845-1.082-1.597-2.194-2.256c-1.113-0.659-2.617-0.989-4.512-0.989h-2.225v-1.854h35.973v1.854h-2.967
		c-1.937,0-3.502,0.35-4.698,1.051c-0.865,0.453-1.545,1.256-2.04,2.41c-0.371,0.783-0.556,2.864-0.556,6.243v43.02
		c0,3.42,0.195,5.604,0.587,6.552s1.164,1.669,2.318,2.163c0.824,0.289,2.843,0.433,6.058,0.433h5.625
		c3.585,0,6.572-0.628,8.962-1.885c2.39-1.256,4.45-3.245,6.181-5.964c1.73-2.72,3.379-6.737,4.944-12.053H235.031z"/>
	<path fill="#FFFFFF" d="M266.431,20.496v27.505h1.359c4.286,0,7.386-1.35,9.303-4.049c1.916-2.699,3.142-6.665,3.677-11.898h1.917
		v35.355h-1.917c-0.412-3.874-1.256-7.036-2.534-9.488c-1.277-2.452-2.761-4.1-4.45-4.945s-4.141-1.267-7.355-1.267v18.976
		c0,3.75,0.154,6.037,0.463,6.861s0.896,1.504,1.762,2.04c0.865,0.536,2.266,0.804,4.203,0.804h4.018
		c6.305,0,11.363-1.463,15.174-4.389c3.812-2.925,6.542-7.376,8.19-13.351h1.854l-3.091,21.448h-58.286v-1.854h2.225
		c1.978,0,3.564-0.35,4.759-1.051c0.865-0.453,1.524-1.236,1.978-2.349c0.371-0.824,0.556-2.926,0.556-6.305V28.16
		c0-3.049-0.083-4.924-0.247-5.625c-0.33-1.154-0.948-2.04-1.854-2.658c-1.277-0.948-3.008-1.421-5.192-1.421h-2.225v-1.854h56.494
		v19.964h-1.916c-0.948-4.862-2.297-8.354-4.048-10.477c-1.751-2.122-4.213-3.678-7.386-4.667
		c-1.854-0.618-5.336-0.927-10.446-0.927H266.431z"/>
	<path fill="#FFFFFF" d="M349.688,44.54l18.604,27.629c3.091,4.574,5.295,7.345,6.614,8.313c1.319,0.968,2.864,1.555,4.636,1.761
		v1.854h-32.883v-1.854c2.637-0.206,4.337-0.607,5.1-1.205c0.762-0.598,1.143-1.329,1.143-2.194c0-0.577-0.124-1.092-0.371-1.545
		c-0.453-0.989-1.607-2.843-3.461-5.563l-9.89-14.587l-10.26,12.547c-3.09,3.833-4.636,6.428-4.636,7.788
		c0,0.948,0.402,1.844,1.205,2.689c0.804,0.845,1.968,1.432,3.493,1.762c0.7,0.206,2.143,0.309,4.327,0.309v1.854h-25.96v-1.854
		c2.967-0.412,5.295-1.195,6.984-2.349c2.225-1.524,5.336-4.718,9.333-9.581l13.351-16.317l-17.183-25.219
		c-2.802-4.162-4.409-6.469-4.821-6.922c-0.865-1.113-1.73-1.896-2.596-2.349c-0.866-0.454-2.061-0.804-3.585-1.051v-1.854h33.439
		v1.854h-1.669c-1.937,0-3.286,0.309-4.049,0.927c-0.762,0.618-1.143,1.401-1.143,2.349c0,0.7,0.124,1.318,0.371,1.854l3.399,5.192
		l8.406,12.733l7.108-8.715c3.626-4.492,5.439-7.624,5.439-9.396c0-0.906-0.257-1.741-0.772-2.503
		c-0.515-0.763-1.247-1.36-2.194-1.792s-2.431-0.649-4.45-0.649v-1.854h24.786v1.854c-1.937,0.041-3.502,0.288-4.698,0.742
		c-1.195,0.453-2.472,1.298-3.832,2.534c-0.865,0.783-3.029,3.234-6.49,7.355L349.688,44.54z"/>
	<path fill="#B0ACA8" d="M25.713,132.398v27.505h1.36c4.285,0,7.386-1.35,9.302-4.049c1.916-2.699,3.142-6.665,3.678-11.898h1.916
		v35.355h-1.916c-0.412-3.874-1.257-7.036-2.534-9.488s-2.761-4.1-4.45-4.945s-4.142-1.267-7.355-1.267v18.976
		c0,3.75,0.154,6.037,0.463,6.861s0.896,1.504,1.762,2.04s2.266,0.804,4.203,0.804h4.018c6.305,0,11.363-1.463,15.174-4.389
		c3.812-2.925,6.542-7.376,8.189-13.351h1.854L58.287,196H0v-1.854h2.225c1.978,0,3.564-0.35,4.759-1.051
		c0.865-0.453,1.525-1.236,1.978-2.349c0.371-0.824,0.556-2.926,0.556-6.305v-44.379c0-3.049-0.083-4.924-0.247-5.625
		c-0.33-1.154-0.948-2.04-1.854-2.658c-1.277-0.948-3.008-1.421-5.192-1.421H0v-1.854h56.494v19.964h-1.916
		c-0.948-4.862-2.297-8.354-4.049-10.477c-1.751-2.122-4.213-3.678-7.386-4.667c-1.854-0.618-5.336-0.927-10.446-0.927H25.713z"/>
	<path fill="#B0ACA8" d="M108.97,156.442l18.605,27.629c3.09,4.574,5.295,7.345,6.613,8.313c1.319,0.968,2.864,1.555,4.636,1.761
		V196h-32.882v-1.854c2.637-0.206,4.337-0.607,5.099-1.205s1.144-1.329,1.144-2.194c0-0.577-0.124-1.092-0.371-1.545
		c-0.453-0.989-1.607-2.844-3.461-5.563l-9.889-14.587l-10.261,12.547c-3.09,3.833-4.636,6.428-4.636,7.788
		c0,0.948,0.402,1.844,1.206,2.689c0.803,0.845,1.968,1.432,3.492,1.762c0.701,0.206,2.143,0.309,4.327,0.309V196h-25.96v-1.854
		c2.967-0.412,5.295-1.195,6.984-2.349c2.225-1.524,5.336-4.718,9.333-9.581l13.351-16.318L79.116,140.68
		c-2.802-4.162-4.409-6.469-4.821-6.922c-0.866-1.113-1.731-1.896-2.596-2.349c-0.865-0.454-2.061-0.804-3.585-1.051v-1.854h33.439
		v1.854h-1.669c-1.937,0-3.286,0.309-4.048,0.927s-1.144,1.401-1.144,2.349c0,0.7,0.124,1.318,0.371,1.854l3.4,5.192l8.406,12.733
		l7.108-8.715c3.626-4.492,5.439-7.624,5.439-9.396c0-0.906-0.257-1.741-0.772-2.503c-0.515-0.763-1.247-1.36-2.194-1.792
		s-2.431-0.649-4.45-0.649v-1.854h24.786v1.854c-1.937,0.041-3.502,0.288-4.697,0.741c-1.195,0.454-2.473,1.298-3.833,2.535
		c-0.865,0.783-3.029,3.234-6.49,7.355L108.97,156.442z"/>
	<path fill="#B0ACA8" d="M167.071,165.466v18.667c0,3.667,0.227,5.975,0.68,6.923c0.453,0.948,1.247,1.7,2.379,2.256
		c1.133,0.556,3.245,0.834,6.335,0.834V196h-34.304v-1.854c3.132,0,5.244-0.288,6.335-0.865c1.092-0.577,1.865-1.329,2.318-2.256
		s0.68-3.225,0.68-6.892v-43.761c0-3.667-0.227-5.964-0.68-6.892s-1.236-1.679-2.349-2.256c-1.113-0.577-3.214-0.865-6.305-0.865
		v-1.854h29.421c9.684,0,16.627,1.73,20.83,5.192c4.203,3.461,6.304,7.768,6.304,12.918c0,4.409-1.36,8.169-4.079,11.28
		c-2.72,3.111-6.47,5.223-11.25,6.335C180.175,165.054,174.736,165.466,167.071,165.466z M167.071,132.398v29.174
		c1.113,0.082,1.937,0.124,2.473,0.124c4.079,0,7.211-1.206,9.395-3.616s3.276-6.15,3.276-11.218c0-4.986-1.092-8.643-3.276-10.971
		s-5.46-3.492-9.828-3.492H167.071z"/>
	<path fill="#B0ACA8" d="M229.561,132.398v27.505h1.36c4.285,0,7.386-1.35,9.302-4.049c1.916-2.699,3.142-6.665,3.678-11.898h1.916
		v35.355h-1.916c-0.412-3.874-1.257-7.036-2.534-9.488s-2.761-4.1-4.45-4.945s-4.142-1.267-7.355-1.267v18.976
		c0,3.75,0.154,6.037,0.463,6.861s0.896,1.504,1.762,2.04s2.266,0.804,4.203,0.804h4.018c6.305,0,11.363-1.463,15.174-4.389
		c3.812-2.925,6.542-7.376,8.189-13.351h1.854L262.135,196h-58.287v-1.854h2.225c1.978,0,3.564-0.35,4.759-1.051
		c0.865-0.453,1.525-1.236,1.978-2.349c0.371-0.824,0.556-2.926,0.556-6.305v-44.379c0-3.049-0.083-4.924-0.247-5.625
		c-0.33-1.154-0.948-2.04-1.854-2.658c-1.277-0.948-3.008-1.421-5.192-1.421h-2.225v-1.854h56.494v19.964h-1.916
		c-0.948-4.862-2.297-8.354-4.049-10.477c-1.751-2.122-4.213-3.678-7.386-4.667c-1.854-0.618-5.336-0.927-10.446-0.927H229.561z"/>
	<path fill="#B0ACA8" d="M296.872,165.281v18.852c0,3.667,0.227,5.975,0.68,6.923c0.453,0.948,1.236,1.7,2.349,2.256
		c1.112,0.556,3.214,0.834,6.305,0.834V196h-34.49v-1.854c3.09,0,5.192-0.288,6.304-0.865c1.113-0.577,1.896-1.329,2.349-2.256
		c0.453-0.927,0.68-3.225,0.68-6.892v-43.761c0-3.667-0.227-5.964-0.68-6.892c-0.454-0.927-1.247-1.679-2.38-2.256
		c-1.133-0.577-3.224-0.865-6.273-0.865v-1.854h31.337c8.159,0,14.124,0.566,17.894,1.7c3.771,1.133,6.851,3.214,9.241,6.243
		c2.39,3.029,3.585,6.583,3.585,10.662c0,4.986-1.792,9.107-5.377,12.362c-2.266,2.06-5.46,3.605-9.581,4.636l16.194,22.808
		c2.143,2.967,3.667,4.821,4.574,5.563c1.36,1.03,2.926,1.586,4.698,1.668V196h-21.263l-21.695-30.719H296.872z M296.872,132.15
		v29.545h2.843c4.615,0,8.066-0.422,10.353-1.267c2.287-0.845,4.08-2.37,5.377-4.574c1.298-2.205,1.947-5.079,1.947-8.622
		c0-5.151-1.195-8.952-3.585-11.404c-2.39-2.452-6.264-3.678-11.62-3.678H296.872z"/>
	<path fill="#B0ACA8" d="M407.696,128.504v18.295h-1.792c-1.071-4.203-2.246-7.231-3.523-9.086
		c-1.277-1.854-3.049-3.317-5.316-4.388c-1.277-0.618-3.482-0.927-6.614-0.927h-5.068v52.043c0,3.461,0.196,5.625,0.587,6.49
		s1.144,1.617,2.256,2.256c1.113,0.639,2.637,0.958,4.574,0.958h2.225V196H359.67v-1.854h2.225c1.978,0,3.564-0.35,4.759-1.051
		c0.865-0.453,1.545-1.236,2.04-2.349c0.371-0.824,0.557-2.926,0.557-6.305v-52.043h-4.883c-4.533,0-7.829,0.968-9.89,2.905
		c-2.884,2.679-4.718,6.511-5.501,11.497h-1.854v-18.295H407.696z"/>
</g>
</svg>
